<?xml version="1.0" encoding="utf-8"?>
<!-- Generator: Adobe Illustrator 21.1.0, SVG Export Plug-In . SVG Version: 6.00 Build 0)  -->
<svg version="1.1" xmlns="http://www.w3.org/2000/svg" xmlns:xlink="http://www.w3.org/1999/xlink" x="0px" y="0px"
	 width="63.871px" height="40.147px" viewBox="0 0 63.871 40.147" enable-background="new 0 0 63.871 40.147" xml:space="preserve">
<g id="background">
</g>
<g id="_x31_">
</g>
<g id="_x32__1_">
	<path fill="#20293B" d="M52.246,5.237v32.41H5.703c-1.766,0-3.203-1.437-3.203-3.203V8.44c0-1.766,1.437-3.203,3.203-3.203H52.246
		 M54.746,2.737H5.703C2.553,2.737,0,5.291,0,8.44v26.005c0,3.15,2.553,5.703,5.703,5.703h49.044V2.737L54.746,2.737z"/>
	<path fill="#20293B" d="M58.168,5.237c1.766,0,3.203,1.437,3.203,3.203v26.005c0,1.766-1.437,3.203-3.203,3.203h-3.659V5.237
		H58.168 M58.168,2.737h-6.159v37.41h6.159c3.15,0,5.703-2.553,5.703-5.703V8.44C63.871,5.291,61.318,2.737,58.168,2.737
		L58.168,2.737z"/>
	<path fill="none" stroke="#20293B" stroke-width="1.5" stroke-miterlimit="10" d="M35.129,29.198H1.825V13.687h33.304
		c1.26,0,2.281,1.021,2.281,2.281v10.949C37.41,28.177,36.389,29.198,35.129,29.198z"/>
	<circle fill="#20293B" cx="10.949" cy="20.986" r="2.737"/>
	<circle fill="#20293B" cx="27.373" cy="20.986" r="2.737"/>
	<line fill="none" stroke="#20293B" stroke-width="1.5" stroke-miterlimit="10" x1="15.511" y1="20.986" x2="22.811" y2="20.986"/>
	<path fill="#20293B" d="M14.371,0L12.09,0c-0.63,0-1.141,0.511-1.141,1.141V3.65h4.562V1.141C15.511,0.511,15.001,0,14.371,0z"/>
	<path fill="#20293B" d="M20.758,0l-2.281,0c-0.63,0-1.141,0.511-1.141,1.141V3.65h4.562V1.141C21.899,0.511,21.388,0,20.758,0z"/>
	<path fill="#20293B" d="M27.145,0l-2.281,0c-0.63,0-1.141,0.511-1.141,1.141V3.65h4.562V1.141C28.286,0.511,27.775,0,27.145,0z"/>
	<path fill="#20293B" d="M33.532,0l-2.281,0c-0.63,0-1.141,0.511-1.141,1.141V3.65h4.562V1.141C34.673,0.511,34.162,0,33.532,0z"/>
</g>
<g id="_x33__1_">
</g>
<g id="_x34__1_">
</g>
<g id="_x35__1_">
</g>
<g id="_x36__1_">
</g>
<g id="_x37__1_">
</g>
<g id="_x38__1_">
</g>
<g id="_x39__1_">
</g>
<g id="_x31_0_1_">
</g>
<g id="_x31_1_1_">
</g>
<g id="_x31_2_1_">
</g>
<g id="_x31_3">
</g>
</svg>
