<?xml version="1.0" encoding="utf-8"?>
<!-- Generator: Adobe Illustrator 21.1.0, SVG Export Plug-In . SVG Version: 6.00 Build 0)  -->
<svg version="1.1" xmlns="http://www.w3.org/2000/svg" xmlns:xlink="http://www.w3.org/1999/xlink" x="0px" y="0px" width="64px"
	 height="40.377px" viewBox="0 0 64 40.377" enable-background="new 0 0 64 40.377" xml:space="preserve">
<g id="background">
</g>
<g id="_x31_">
</g>
<g id="_x32__1_">
</g>
<g id="_x33__1_">
</g>
<g id="_x34__1_">
</g>
<g id="_x35__1_">
</g>
<g id="_x36__1_">
</g>
<g id="_x37__1_">
</g>
<g id="_x38__1_">
</g>
<g id="_x39__1_">
</g>
<g id="_x31_0_1_">
	<g>
		<path fill="#20293B" d="M55.064,5.093c1.797,0,3.26,1.462,3.26,3.26v20.735c0,1.797-1.462,3.26-3.26,3.26H5.76
			c-1.797,0-3.26-1.462-3.26-3.26V8.353c0-1.797,1.462-3.26,3.26-3.26H55.064 M55.064,2.593H5.76C2.579,2.593,0,5.172,0,8.353
			v20.735c0,3.181,2.579,5.76,5.76,5.76h49.304c3.181,0,5.76-2.579,5.76-5.76V8.353C60.824,5.172,58.245,2.593,55.064,2.593
			L55.064,2.593z"/>
	</g>
	<path fill="#20293B" d="M62.848,23.789h-2.534v-11.98h2.534c0.636,0,1.152,0.516,1.152,1.152v9.676
		C64,23.273,63.484,23.789,62.848,23.789z"/>
	<path fill="#20293B" d="M26.265,28.397H13.363c-1.272,0-2.304-1.032-2.304-2.304V11.348c0-1.272,1.032-2.304,2.304-2.304h12.902
		c1.272,0,2.304,1.032,2.304,2.304v14.745C28.569,27.366,27.537,28.397,26.265,28.397z"/>
	<path fill="#20293B" d="M46.539,28.397H33.637c-1.272,0-2.304-1.032-2.304-2.304V11.348c0-1.272,1.032-2.304,2.304-2.304h12.902
		c1.272,0,2.304,1.032,2.304,2.304v14.745C48.843,27.366,47.812,28.397,46.539,28.397z"/>
	<g>
		<path fill="#20293B" d="M53.794,34.505v3.569c0,0.443-0.361,0.804-0.804,0.804H7.833c-0.443,0-0.804-0.361-0.804-0.804v-3.569
			H53.794 M55.294,33.005H5.529v5.069c0,1.272,1.032,2.304,2.304,2.304H52.99c1.272,0,2.304-1.032,2.304-2.304V33.005L55.294,33.005
			z"/>
	</g>
	<circle fill="#20293B" cx="6.451" cy="13.652" r="1.843"/>
	<circle fill="#20293B" cx="6.451" cy="20.103" r="1.843"/>
	<path fill="none" stroke="#20293B" stroke-width="1.5" stroke-linejoin="round" stroke-miterlimit="10" d="M41.931,0.75h8.294
		c1.272,0,2.304,1.032,2.304,2.304v0.461H39.627V3.054C39.627,1.782,40.659,0.75,41.931,0.75z"/>
	<path fill="none" stroke="#20293B" stroke-width="1.5" stroke-linejoin="round" stroke-miterlimit="10" d="M28.108,0.75h3.686
		c1.272,0,2.304,1.032,2.304,2.304v0.461h-8.294V3.054C25.804,1.782,26.835,0.75,28.108,0.75z"/>
</g>
<g id="_x31_1_1_">
</g>
<g id="_x31_2_1_">
</g>
<g id="_x31_3">
</g>
</svg>
