<svg enable-background="new 0 0 63.814 56.98" height="56.98" viewBox="0 0 63.814 56.98" width="63.814" xmlns="http://www.w3.org/2000/svg"><path d="m56.233 14.534-.548-7.668c-.219-3.06-2.765-5.431-5.833-5.431h-35.865c-3.079 0-5.63 2.387-5.835 5.459l-.571 8.576" fill="none" stroke="#20293b" stroke-linejoin="round" stroke-miterlimit="10" stroke-width="1.5"/><path d="m59.026 56.98h-54.238c-1.322 0-2.597-.554-3.499-1.519-.901-.966-1.368-2.276-1.278-3.594l2.328-34.15c.171-2.502 2.269-4.462 4.777-4.462h49.582c2.509 0 4.606 1.96 4.776 4.463l2.329 34.15c.09 1.318-.377 2.628-1.278 3.594-.902.965-2.177 1.518-3.499 1.518zm-51.91-41.167c-1.168 0-2.145.913-2.225 2.079l-2.328 34.15c-.042.623.169 1.217.595 1.674.427.456 1.005.707 1.63.707h54.238c.624 0 1.203-.251 1.63-.707.427-.457.637-1.051.595-1.674l-2.329-34.15c-.079-1.165-1.056-2.078-2.224-2.078h-49.582z" fill="#20293b"/><path d="m49.684 2.371h-35.554c-.517 0-.936-.419-.936-.936 0-.517.419-.936.936-.936h35.554c.517 0 .936.419.936.936-.001.517-.42.936-.936.936z" fill="none" stroke="#20293b" stroke-miterlimit="10"/><path d="m1.967 36.054h59.88" fill="none" stroke="#20293b" stroke-miterlimit="10" stroke-width="1.5"/><path d="m1.967 40.732h59.88" fill="none" stroke="#20293b" stroke-miterlimit="10" stroke-width="1.5"/><path d="m1.967 45.41h59.88" fill="none" stroke="#20293b" stroke-miterlimit="10" stroke-width="1.5"/><path d="m1.967 50.088h59.88" fill="none" stroke="#20293b" stroke-miterlimit="10" stroke-width="1.5"/><g fill="#20293b"><circle cx="45.941" cy="24.826" r="1.121"/><path d="m45.941 17.341c-4.134 0-7.485 3.351-7.485 7.485s3.351 7.485 7.485 7.485 7.485-3.351 7.485-7.485-3.351-7.485-7.485-7.485zm-.749.936h1.5v2.807h-1.5zm.75 9.17c-1.446 0-2.622-1.176-2.622-2.622s1.176-2.621 2.622-2.621c1.445 0 2.621 1.176 2.621 2.621s-1.176 2.622-2.621 2.622z"/><circle cx="17.851" cy="43.115" r="6.769"/><path d="m18.622 23.89h4.114v2.807h-4.114z"/><path d="m13.009 23.89h4.113v2.807h-4.113z"/><path d="m11.509 23.89h-2.525c-.775 0-1.403.628-1.403 1.403s.628 1.403 1.403 1.403h2.525z"/><path d="m26.761 23.89h-2.524v2.807h2.524c.775 0 1.403-.628 1.403-1.403s-.628-1.404-1.403-1.404z"/></g></svg>