<?xml version="1.0" encoding="utf-8"?>
<!-- Generator: Adobe Illustrator 21.1.0, SVG Export Plug-In . SVG Version: 6.00 Build 0)  -->
<svg version="1.1" xmlns="http://www.w3.org/2000/svg" xmlns:xlink="http://www.w3.org/1999/xlink" x="0px" y="0px"
	 width="64.143px" height="47.663px" viewBox="0 0 64.143 47.663" enable-background="new 0 0 64.143 47.663" xml:space="preserve">
<g id="background">
</g>
<g id="_x31_">
	<path fill="#20293B" d="M63.878,23.285L53.423,1.714C52.919,0.673,51.776,0,50.514,0h-7.618h-2.367H2.856C1.279,0,0,1.279,0,2.856
		v30.528v2.363v9.832c0,1.151,0.933,2.084,2.084,2.084h38.445v0h21.417c1.213,0,2.197-0.984,2.197-2.197v-9.719v-2.363v-8.957
		C64.143,24.034,64.053,23.645,63.878,23.285z M43.029,2.5h7.485c0.333,0,0.588,0.157,0.66,0.305l10.455,21.571
		c0.009,0.02,0.014,0.037,0.014,0.051v8.82H43.029V2.5z M2.5,2.856C2.5,2.66,2.66,2.5,2.856,2.5h37.541v30.747H2.5V2.856z
		 M40.396,45.162H2.5v-9.279h37.896V45.162z M61.643,45.163H43.029v-9.279h18.614V45.163z"/>
	<rect x="5.696" y="5.497" fill="#20293B" width="31.505" height="24.753"/>
	<line fill="none" stroke="#20293B" stroke-width="1.5" stroke-miterlimit="10" x1="25.433" y1="41.705" x2="34.965" y2="41.705"/>
	<line fill="none" stroke="#20293B" stroke-width="1.5" stroke-miterlimit="10" x1="5.696" y1="35.747" x2="5.696" y2="47.663"/>
	<line fill="none" stroke="#20293B" stroke-width="1.5" stroke-miterlimit="10" x1="9.185" y1="35.747" x2="9.185" y2="47.663"/>
</g>
<g id="_x32__1_">
</g>
<g id="_x33__1_">
</g>
<g id="_x34__1_">
</g>
<g id="_x35__1_">
</g>
<g id="_x36__1_">
</g>
<g id="_x37__1_">
</g>
<g id="_x38__1_">
</g>
<g id="_x39__1_">
</g>
<g id="_x31_0_1_">
</g>
<g id="_x31_1_1_">
</g>
<g id="_x31_2_1_">
</g>
<g id="_x31_3">
</g>
</svg>
